<?xml version="1.0" encoding="UTF-8" standalone="no" ?>
<!DOCTYPE svg PUBLIC "-//W3C//DTD SVG 1.1//EN" "http://www.w3.org/Graphics/SVG/1.1/DTD/svg11.dtd">
<svg xmlns="http://www.w3.org/2000/svg" xmlns:xlink="http://www.w3.org/1999/xlink" version="1.1" width="200" height="200" viewBox="0 0 200 200" xml:space="preserve">
<desc>Created with Fabric.js 5.3.0</desc>
<defs>
</defs>
<g transform="matrix(1 0 0 1 100.2672507609 90.1782811413)" id="37ENkknabLuQAcu8iAC3-"  >
<g style="" vector-effect="non-scaling-stroke"   >
		<g transform="matrix(-0.2845185561 0 0 0.2845185561 39.6808506329 39.481557075)" id="rumNFnHcFNc-_c2nI8nu5"  >
<path style="stroke: rgb(247,47,58); stroke-width: 1; stroke-dasharray: none; stroke-linecap: butt; stroke-dashoffset: 0; stroke-linejoin: miter; stroke-miterlimit: 4; fill: rgb(255,255,255); fill-opacity: 0; fill-rule: nonzero; opacity: 1;" vector-effect="non-scaling-stroke"  transform=" translate(0, 0)" d="M 30.85869 -36.35744 C 30.85869 -36.35744 13.40905 -111.2235 12.83623 -111.2235 C 12.28633 -111.2235 -40.72644 -69.30026000000001 -53.225660000000005 -16.608550000000008 C -66.85300000000001 40.83883999999999 -41.84438 111.22352 -41.84438 111.22352 L 57.29003 41.10857999999999 z" stroke-linecap="round" />
</g>
		<g transform="matrix(0.2845185561 0 0 0.2845185561 -39.6808514948 39.481558178)" id="1ci7q5tgjfqX3ng_VReIp"  >
<path style="stroke: rgb(247,47,58); stroke-width: 1; stroke-dasharray: none; stroke-linecap: butt; stroke-dashoffset: 0; stroke-linejoin: miter; stroke-miterlimit: 4; fill: rgb(255,255,255); fill-opacity: 0; fill-rule: nonzero; opacity: 1;" vector-effect="non-scaling-stroke"  transform=" translate(0.0000023998, -0.00001)" d="M 30.85869 -36.35744 C 30.85869 -36.35744 13.40905 -111.2235 12.83623 -111.2235 C 12.28633 -111.2235 -40.72644 -69.30026000000001 -53.225660000000005 -16.608550000000008 C -66.85300000000001 40.83883999999999 -41.84438 111.22352 -41.84438 111.22352 L 57.29003 41.10857999999999 z" stroke-linecap="round" />
</g>
		<g transform="matrix(0.3211499473 0 0 0.2845185561 -0.2672507609 -25.1518738955)" id="mbyEyB-dF7K-V9I5UEDkM"  >
<path style="stroke: rgb(146,9,27); stroke-width: 0; stroke-dasharray: none; stroke-linecap: butt; stroke-dashoffset: 0; stroke-linejoin: miter; stroke-miterlimit: 4; fill: rgb(49,168,247); fill-rule: nonzero; opacity: 1;" vector-effect="non-scaling-stroke"  transform=" translate(0, 0)" d="M 0 -63.42593 C 35.01111 -63.42593 63.42593 -35.011120000000005 63.42593 0 C 63.42593 35.01111 35.011120000000005 63.42593 0 63.42593 C -35.01111 63.42593 -63.42593 35.011120000000005 -63.42593 0 C -63.42593 -35.01111 -35.011120000000005 -63.42593 0 -63.42593 z" stroke-linecap="round" />
</g>
		<g transform="matrix(0.2845185561 0 0 0.2845185561 0.0620684352 0.5450529869)" id="MDT-_ypfsUOcYgBPgExC2"  >
<path style="stroke: rgb(0,0,0); stroke-width: 1; stroke-dasharray: none; stroke-linecap: butt; stroke-dashoffset: 0; stroke-linejoin: miter; stroke-miterlimit: 4; fill: rgb(255,255,255); fill-opacity: 0; fill-rule: nonzero; opacity: 1;" vector-effect="non-scaling-stroke"  transform=" translate(0, 0)" d="M -128.30824 -95.9525 C -122.05073000000002 -137.60987 -85.86096 -186.40877 -85.86096 -186.40877 C -85.86096 -186.40877 -42.1893 -199.79814 0.44316999999999496 -199.79814 C 43.07563999999999 -199.79814 84.66891 -186.40877 84.66891 -186.40877 C 84.66891 -186.40877 123.20661 -132.94754 128.51551999999998 -95.9525 C 145.71116999999998 23.87509 70.40318999999998 199.79813000000001 70.40318999999998 199.79813000000001 L -70.37843000000002 199.79813000000001 C -70.37843000000002 199.79813000000001 -146.30799000000002 23.87509000000003 -128.30823000000004 -95.95249999999999 z" stroke-linecap="round" />
</g>
		<g transform="matrix(0.2845185561 0 0 0.4111698806 -0.2672507609 -70.5056258837)" id="7v5ZAW8otZDPOVS7Pk72I"  >
<path style="stroke: rgb(247,47,58); stroke-width: 1; stroke-dasharray: none; stroke-linecap: butt; stroke-dashoffset: 0; stroke-linejoin: miter; stroke-miterlimit: 4; fill: rgb(255,255,255); fill-opacity: 0; fill-rule: nonzero; opacity: 1;" vector-effect="non-scaling-stroke"  transform=" translate(0, 0)" d="M -52.26549 -10.07771 C -30.96676 -30.76737 0.7121500000000012 -41.379310000000004 0.7121500000000012 -41.379310000000004 C 0.7121500000000012 -41.379310000000004 32.22784 -30.767370000000003 53.17049 -10.077710000000003 C 74.11314 10.611949999999997 84.48275 41.37931 84.48275 41.37931 C 84.48275 41.37931 43.842 31.987649999999995 1.6006199999999922 31.987649999999995 C -40.64076000000001 31.987649999999995 -84.48277 41.37931 -84.48277 41.37931 C -84.48277 41.37931 -73.56423000000001 10.611939999999997 -52.2655 -10.077710000000003 z" stroke-linecap="round" />
</g>
		<g transform="matrix(0.1876898245 0 0 0.1876898245 0.188158257 73.7124844301)" id="wE-UMALJn9b2XLjF9LTI-"  >
<path style="stroke: rgb(252,134,29); stroke-width: 1; stroke-dasharray: none; stroke-linecap: butt; stroke-dashoffset: 0; stroke-linejoin: miter; stroke-miterlimit: 4; fill: rgb(255,255,255); fill-opacity: 0; fill-rule: nonzero; opacity: 1;" vector-effect="non-scaling-stroke"  transform=" translate(0, 0)" d="M -72.56229 -28.83523 C -72.56229 -51.536379999999994 -50.38577000000001 -73.56322 -50.38577000000001 -73.56322 L 53.06250999999999 -73.56322 C 53.06250999999999 -73.56322 72.5623 -52.97316 72.5623 -28.835230000000003 C 72.5623 -4.697300000000002 53.06250999999999 22.988509999999998 53.06250999999999 22.988509999999998 L 35.82112999999999 57.47127 L 16.28089999999999 22.988509999999998 L -2.896010000000011 73.56322 L -17.05244000000001 22.988509999999998 L -38.891520000000014 57.47127 L -50.385770000000015 17.24138 C -50.385770000000015 17.24138 -72.56229000000002 -6.134080000000001 -72.56229000000002 -28.835230000000003 z" stroke-linecap="round" />
</g>
</g>
</g>
</svg>