<?xml version="1.0" standalone="no"?>
<!DOCTYPE svg PUBLIC "-//W3C//DTD SVG 20010904//EN"
 "http://www.w3.org/TR/2001/REC-SVG-20010904/DTD/svg10.dtd">
<svg version="1.0" xmlns="http://www.w3.org/2000/svg"
 viewBox="0 0 2600.000000 2600.000000"
 preserveAspectRatio="xMidYMid meet">
<metadata>
Created by potrace 1.15, written by Peter Selinger 2001-2017
</metadata>
<g transform="translate(0.000000,2600.000000) scale(0.100000,-0.100000)"
fill="rgb(199,215,226)" stroke="none" style="opacity: .2">
<path d="M8771 22615 c-530 -94 -928 -503 -1007 -1037 -42 -286 27 -585 194
-843 58 -90 236 -268 327 -327 146 -96 322 -167 471 -191 60 -9 79 -16 85 -32
10 -22 709 -2882 709 -2900 0 -5 -62 -37 -137 -69 -1209 -517 -2290 -1365
-3083 -2421 -850 -1132 -1340 -2440 -1440 -3841 -14 -196 -14 -712 0 -907 12
-171 27 -318 33 -324 13 -12 772 -97 1197 -133 692 -58 1238 -80 2018 -80 698
0 1142 15 1767 61 3393 248 6695 1198 9670 2782 83 44 151 81 153 82 5 4 -100
360 -157 527 -554 1630 -1707 3009 -3259 3899 -948 544 -2003 870 -3157 976
-270 24 -1002 25 -1265 0 -344 -32 -725 -87 -881 -127 -43 -11 -86 -20 -96
-20 -16 0 -113 236 -576 1398 -306 770 -557 1402 -557 1407 0 4 29 38 64 76
360 381 441 929 208 1394 -159 318 -465 555 -821 636 -117 27 -347 34 -460 14z
m7461 -8113 c480 -124 856 -486 992 -954 127 -439 32 -905 -258 -1265 -191
-236 -476 -410 -786 -478 -101 -22 -365 -31 -472 -16 -586 83 -1045 516 -1169
1104 -31 145 -31 389 0 534 97 458 400 831 818 1008 192 80 334 106 573 101
167 -3 197 -7 302 -34z m-3947 -677 c145 -23 261 -61 400 -130 155 -77 271
-162 387 -284 180 -189 299 -415 355 -674 14 -65 18 -127 17 -292 0 -202 -1
-214 -31 -325 -72 -269 -191 -470 -392 -662 -187 -179 -406 -297 -661 -353
-114 -25 -401 -31 -517 -11 -427 74 -801 346 -996 725 -67 129 -98 214 -129
352 -20 88 -23 132 -23 289 0 157 3 201 23 290 119 530 539 952 1057 1059 132
27 139 28 290 29 74 1 169 -4 220 -13z m-3855 -725 c815 -157 1308 -999 1050
-1790 -190 -581 -754 -973 -1365 -947 -71 3 -167 13 -212 22 -525 103 -952
508 -1078 1023 -133 542 64 1102 505 1436 199 150 451 250 694 276 110 12 291
3 406 -20z"/>
<path fill="rgb(69,75,84)" d="M20015 11584 c-442 -237 -957 -491 -1420 -701 -4254 -1931 -8972
-2647 -13603 -2065 l-224 29 -64 -91 c-576 -819 -2291 -3272 -2289 -3274 5 -5
599 -73 942 -107 1202 -119 2209 -168 3478 -168 864 -1 1272 10 2030 53 4586
261 9065 1398 13230 3357 499 235 1475 728 1475 745 0 6 -3364 2296 -3385
2304 -5 2 -82 -35 -170 -82z"/>
<path d="M18010 6064 c-2964 -946 -6049 -1512 -9173 -1683 -186 -11 -340 -21
-342 -23 -2 -2 46 -32 108 -65 886 -486 1862 -795 2855 -903 575 -62 1199 -59
1767 10 1258 151 2437 590 3460 1288 420 286 790 596 1155 968 176 179 447
481 439 489 -2 2 -123 -35 -269 -81z"/>
</g>
</svg>
