<svg
   width="8.4666672mm"
   height="8.4666672mm"
   viewBox="0 0 8.4666672 8.4666672"
   version="1.1"
   id="svg5"
   xml:space="preserve"
   sodipodi:docname="bitmap1.svg"
   xmlns:inkscape="http://www.inkscape.org/namespaces/inkscape"
   xmlns:sodipodi="http://sodipodi.sourceforge.net/DTD/sodipodi-0.dtd"
   xmlns="http://www.w3.org/2000/svg"
   xmlns:svg="http://www.w3.org/2000/svg"><sodipodi:namedview
     id="namedview7"
     pagecolor="#ffffff"
     bordercolor="#000000"
     borderopacity="0.25"
     inkscape:showpageshadow="2"
     inkscape:pageopacity="0.0"
     inkscape:pagecheckerboard="0"
     inkscape:deskcolor="#d1d1d1"
     inkscape:document-units="mm"
     showgrid="false" /><defs
     id="defs2" /><g
     inkscape:label="Layer 1"
     inkscape:groupmode="layer"
     id="layer1"
     transform="translate(-2.0590392,-207.19039)"><g
       id="g263"
       transform="matrix(0.26458333,0,0,0.26458333,2.059854,207.18069)"><g
         transform="matrix(0.89694601,0,0,0.89694601,15.996922,16.036669)"
         id="XOGLKM4yk8hdqAcecJGbs">
<path
   style="opacity:1;fill:#ef5350;fillRule:nonzero;stroke:#d9450d;stroke-width:0;stroke-linecap:butt;stroke-linejoin:miter;stroke-miterlimit:4;stroke-dasharray:none;stroke-dashoffset:0"
   vector-effect="non-scaling-stroke"
   d="M 0,-17.83831 C 9.84675,-17.83831 17.83831,-9.84675 17.83831,0 17.83831,9.84675 9.84675,17.83831 0,17.83831 -9.84675,17.83831 -17.83831,9.84675 -17.83831,0 -17.83831,-9.84675 -9.84675,-17.83831 0,-17.83831 Z"
   stroke-linecap="round"
   id="path136" />
</g><g
         transform="translate(19.844208,21.067534)"
         id="oU8tDw37aE6KNsU6amz7G">
<g
   vector-effect="non-scaling-stroke"
   id="g181">
		<g
   transform="translate(0.55401152,1.3103147)"
   style="filter:url(#SVGID_425)"
   id="L6tAvGL_BUNUrZUYE27ND">
<filter
   id="SVGID_425"
   y="-2.1069958e-08"
   height="1.04214"
   x="-3.7591779e-08"
   width="1.0751836">
	<feGaussianBlur
   in="SourceAlpha"
   stdDeviation="0"
   id="feGaussianBlur139" />
	<feOffset
   dx="1"
   dy="1"
   result="oBlur"
   id="feOffset141" />
	<feFlood
   flood-color="rgb(0,0,0)"
   flood-opacity="1"
   id="feFlood143" />
	<feComposite
   in2="oBlur"
   operator="in"
   id="feComposite145" />
	<feMerge
   id="feMerge151">
		<feMergeNode
   id="feMergeNode147" />
		<feMergeNode
   in="SourceGraphic"
   id="feMergeNode149" />
	</feMerge>
</filter>
		<g
   aria-label="C"
   id="text156"
   style="font-size:24px;line-height:1;font-family:'Bad Script';letter-spacing:0.12;white-space:pre;opacity:1;fill:#ffffff;stroke:#000000;stroke-width:0"><path
     d="m 2.6206055,3.9399023 q 0.4101562,0 0.4101562,0.4335938 0,0.328125 -0.3632812,0.5976562 -0.5507813,0.375 -1.1132813,0.796875 -2.03906248,1.5234375 -3.75,1.5234375 -0.9609375,0 -1.828125,-0.4921875 -1.8398437,-1.03125 -2.6367187,-3.7148437 -0.3984375,-1.3476563 -0.3984375,-2.56640629 0,-2.00390621 0.6328125,-4.76953121 0.6445312,-2.7773438 1.8398437,-5.5898438 1.1953125,-2.8242183 2.859375,-4.7109373 1.66406252,-1.886719 3.5390625,-1.886719 1.875,0 3.1523438,1.570313 1.2773437,1.558593 1.2773437,3.1875 -0.035156,0.246093 -0.2460937,0.457031 -0.2109375,0.210937 -0.421875,0.210937 -0.2109375,0 -0.3164063,-0.140625 -0.1523437,-0.210937 -0.2109375,-0.773437 -0.1875,-1.488281 -1.0664062,-2.414063 -0.8789063,-0.9375 -2.1914063,-0.9375 -1.31249998,0 -2.8007812,1.769532 -1.9804688,2.34375 -3.3984375,6.6445308 -1.4179688,4.2890625 -1.4179688,6.78515626 0,2.48437504 0.84375,4.16015624 1.03125,2.0390625 2.9765625,2.0390625 1.42968752,0 3.28125,-1.3359375 0.515625,-0.375 0.8320313,-0.609375 0.3164062,-0.234375 0.515625,-0.234375 z"
     id="path390" /></g>
</g>		<g
   transform="translate(-0.83856722,-1.3103147)"
   id="thZGFtI_kCekNYRq5n1q7">
		<g
   aria-label="C"
   id="text163"
   style="font-size:28px;line-height:1;font-family:'Bad Script';letter-spacing:0.14;white-space:pre;opacity:1;fill:#ffffff;stroke:#000000;stroke-width:0"><path
     d="m 4.3530273,6.9564619 q 0.4785157,0 0.4785157,0.5058594 0,0.3828125 -0.4238282,0.6972656 -0.6425781,0.4375 -1.2988281,0.9296875 -2.37890623,1.7773436 -4.375,1.7773436 -1.1210937,0 -2.1328125,-0.574219 -2.1464844,-1.2031246 -3.0761719,-4.333984 -0.4648437,-1.5722656 -0.4648437,-2.9941406 0,-2.33789062 0.7382812,-5.5644531 0.7519532,-3.2402344 2.1464844,-6.5214844 1.3945313,-3.2949219 3.33593752,-5.4960939 1.94140628,-2.201172 4.12890628,-2.201172 2.1875,0 3.6777343,1.832032 1.4902344,1.818359 1.4902344,3.71875 -0.041016,0.287109 -0.2871094,0.533203 -0.2460937,0.246093 -0.4921875,0.246093 -0.2460937,0 -0.3691406,-0.164062 -0.1777344,-0.246094 -0.2460937,-0.902344 -0.21875,-1.736328 -1.2441407,-2.816406 -1.0253906,-1.09375 -2.5566406,-1.09375 -1.53125,0 -3.26757811,2.064453 -2.31054689,2.734375 -3.96484379,7.7519532 -1.6542968,5.00390621 -1.6542968,7.9160156 0,2.8984375 0.984375,4.8535156 1.203125,2.3789063 3.4726562,2.3789063 1.66796877,0 3.828125,-1.5585938 0.6015625,-0.4375 0.9707031,-0.7109375 0.3691407,-0.2734375 0.6015625,-0.2734375 z"
     id="path387" /></g>
</g>
		<g
   transform="translate(0.16143278,-0.31031471)"
   id="DjPI5qxicB_LMIfwFg7pR">
		<g
   aria-label="C"
   id="text168"
   style="font-size:26px;line-height:1;font-family:'Bad Script';letter-spacing:0.13;white-space:pre;opacity:1;fill:#ffffff;stroke:#000000;stroke-width:0"><path
     d="m 3.4868164,5.4481821 q 0.4443359,0 0.4443359,0.4697266 0,0.3554687 -0.3935546,0.6474609 -0.5966797,0.40625 -1.2060547,0.8632813 -2.20898441,1.6503906 -4.0625,1.6503906 -1.0410157,0 -1.9804688,-0.5332031 -1.993164,-1.1171875 -2.8564453,-4.0244141 -0.4316406,-1.4599609 -0.4316406,-2.7802734 0,-2.17089848 0.6855469,-5.1669922 0.6982421,-3.0087891 1.993164,-6.0556641 1.2949219,-3.0595706 3.0976563,-5.1035156 1.80273434,-2.043945 3.8339843,-2.043945 2.03125,0 3.4150391,1.701172 1.3837891,1.688476 1.3837891,3.453125 -0.038086,0.266601 -0.2666016,0.495117 -0.2285156,0.228515 -0.4570312,0.228515 -0.2285157,0 -0.3427735,-0.152343 -0.165039,-0.228516 -0.2285156,-0.837891 -0.203125,-1.612305 -1.1552734,-2.615234 -0.9521485,-1.015625 -2.3740235,-1.015625 -1.421875,0 -3.03417967,1.916992 -2.14550783,2.539062 -3.68164063,7.198242 -1.5361328,4.6464844 -1.5361328,7.3505859 0,2.6914063 0.9140625,4.506836 1.1171875,2.2089843 3.2246094,2.2089843 1.54882809,0 3.5546875,-1.4472656 0.5585937,-0.40625 0.9013672,-0.6601562 0.3427734,-0.2539063 0.5585937,-0.2539063 z"
     id="path384" /></g>
</g>
		<g
   transform="translate(0.83856722,0.56309059)"
   id="D4PbCdklc4aAc5dX7a485">
		<g
   aria-label="C"
   id="text173"
   style="font-size:25px;line-height:1;font-family:'Bad Script';letter-spacing:0.125;white-space:pre;opacity:1;fill:#ffffff;stroke:#000000;stroke-width:0"><path
     d="m 3.0537109,4.6940422 q 0.4272461,0 0.4272461,0.4516602 0,0.3417968 -0.3784179,0.6225586 -0.5737305,0.390625 -1.159668,0.8300781 -2.12402344,1.586914 -3.90625,1.586914 -1.0009766,0 -1.9042969,-0.5126953 -1.9165039,-1.0742187 -2.746582,-3.8696289 -0.4150391,-1.4038086 -0.4150391,-2.6733398 0,-2.08740236 0.6591797,-4.9682617 0.6713867,-2.8930664 1.9165039,-5.8227539 1.2451172,-2.9418945 2.9785156,-4.9072265 1.73339848,-1.965332 3.6865235,-1.965332 1.953125,0 3.2836914,1.635742 1.3305664,1.623535 1.3305664,3.320313 -0.036621,0.256347 -0.2563477,0.476074 -0.2197265,0.219726 -0.4394531,0.219726 -0.2197266,0 -0.3295898,-0.146484 -0.1586914,-0.219727 -0.2197266,-0.805664 -0.1953125,-1.550293 -1.1108398,-2.514649 -0.9155274,-0.976562 -2.2827149,-0.976562 -1.36718748,0 -2.91748045,1.843262 -2.06298825,2.441406 -3.54003905,6.9213864 -1.4770508,4.4677734 -1.4770508,7.06787109 0,2.58789061 0.8789063,4.33349611 1.0742187,2.1240234 3.1005859,2.1240234 1.48925781,0 3.4179687,-1.3916015 Q 2.1870117,5.1823235 2.5166016,4.9381828 2.8461914,4.6940422 3.0537109,4.6940422 Z"
     id="path381" /></g>
</g>
		<g
   transform="translate(-0.51566464,-0.64258028)"
   id="YNwPBPl-SJncEp85HU_KZ">
		<g
   aria-label="C"
   id="text178"
   style="font-size:27px;line-height:1;font-family:'Bad Script';letter-spacing:0.135;white-space:pre;opacity:1;fill:#ffffff;stroke:#000000;stroke-width:0"><path
     d="m 3.9199219,6.202322 q 0.4614258,0 0.4614258,0.487793 0,0.3691406 -0.4086914,0.6723633 -0.619629,0.421875 -1.2524415,0.8964843 -2.29394527,1.7138672 -4.21875,1.7138672 -1.0810546,0 -2.0566406,-0.5537109 Q -5.625,8.2589626 -6.5214844,5.2399197 -6.9697266,3.7238064 -6.9697266,2.3527126 q 0,-2.2543945 0.7119141,-5.3657226 0.7250977,-3.1245117 2.0698242,-6.2885742 1.3447266,-3.1772458 3.21679689,-5.2998048 1.87207032,-2.122559 3.98144531,-2.122559 2.109375,0 3.5463867,1.766602 1.4370117,1.753418 1.4370117,3.585938 -0.039551,0.276855 -0.2768554,0.51416 -0.2373047,0.237304 -0.4746094,0.237304 -0.2373047,0 -0.355957,-0.158203 -0.1713868,-0.237304 -0.2373047,-0.870117 -0.2109375,-1.674316 -1.1997071,-2.71582 -0.9887695,-1.054688 -2.465332,-1.054688 -1.4765625,0 -3.15087889,1.990723 -2.22802731,2.636719 -3.82324221,7.4750976 -1.5952148,4.8251953 -1.5952148,7.6333007 0,2.7949219 0.9492187,4.6801758 1.1601563,2.2939453 3.3486328,2.2939453 1.60839848,0 3.6914063,-1.5029296 Q 2.9838867,6.7296658 3.3398438,6.4659939 3.6958008,6.202322 3.9199219,6.202322 Z"
     id="path378" /></g>
</g>
</g>
</g><g
         transform="translate(10.556218,20.522108)"
         style="filter:url(#SVGID_434)"
         id="-tJF-MlzbViIkqn7E2RN7">
<filter
   id="SVGID_434"
   y="-3.1604937e-08"
   height="1.0632099"
   x="-5.6387666e-08"
   width="1.1127754">
	<feGaussianBlur
   in="SourceAlpha"
   stdDeviation="0"
   id="feGaussianBlur184" />
	<feOffset
   dx="1"
   dy="1"
   result="oBlur"
   id="feOffset186" />
	<feFlood
   flood-color="rgb(0,0,0)"
   flood-opacity="1"
   id="feFlood188" />
	<feComposite
   in2="oBlur"
   operator="in"
   id="feComposite190" />
	<feMerge
   id="feMerge196">
		<feMergeNode
   id="feMergeNode192" />
		<feMergeNode
   in="SourceGraphic"
   id="feMergeNode194" />
	</feMerge>
</filter>
		<g
   aria-label="C"
   id="text201"
   style="font-size:16px;line-height:1;font-family:'Bad Script';letter-spacing:0.08;white-space:pre;opacity:1;fill:#ffffff;stroke:#000000;stroke-width:0"><path
     d="m -0.84423828,-2.0932177 q 0.2734375,0 0.2734375,0.2890625 0,0.21875 -0.2421875,0.3984375 -0.36718752,0.25 -0.74218752,0.53125001 -1.359375,1.015625 -2.5,1.015625 -0.640625,0 -1.21875,-0.328125 -1.2265625,-0.6875 -1.7578125,-2.47656251 -0.265625,-0.8984375 -0.265625,-1.7109375 0,-1.3359375 0.421875,-3.1796875 0.4296875,-1.8515625 1.2265625,-3.7265628 0.796875,-1.882812 1.90625,-3.140625 1.109375,-1.257812 2.359375,-1.257812 1.25000002,0 2.10156252,1.046875 0.85156248,1.039062 0.85156248,2.125 -0.023437,0.164062 -0.1640625,0.304687 -0.140625,0.140625 -0.28125,0.140625 -0.14062498,0 -0.21093748,-0.09375 -0.1015625,-0.140625 -0.140625,-0.515625 -0.125,-0.992187 -0.7109375,-1.609375 -0.5859375,-0.625 -1.46093752,-0.625 -0.875,0 -1.8671875,1.179688 -1.3203125,1.5625 -2.265625,4.4296873 -0.9453125,2.859375 -0.9453125,4.5234375 0,1.65625 0.5625,2.7734375 0.6875,1.35937501 1.984375,1.35937501 0.953125,0 2.1875,-0.89062501 0.34375,-0.25 0.5546875,-0.40625 0.21093752,-0.15625 0.34375002,-0.15625 z"
     id="path375" /></g>
</g><g
         transform="translate(10.945766,21.037779)"
         id="LpMLlZzGSWTs5s4ylogYe">
		<g
   aria-label="C"
   id="text206"
   style="font-size:15px;line-height:1;font-family:'Bad Script';letter-spacing:0.075;white-space:pre;opacity:1;fill:#ffffff;stroke:#000000;stroke-width:0"><path
     d="m -1.2773437,-2.8473577 q 0.2563476,0 0.2563476,0.2709961 0,0.2050781 -0.2270508,0.3735352 -0.3442383,0.234375 -0.6958008,0.4980468 -1.274414,0.95214847 -2.34375,0.95214847 -0.6005859,0 -1.1425781,-0.30761717 -1.1499023,-0.6445313 -1.6479492,-2.3217774 -0.2490234,-0.8422851 -0.2490234,-1.6040039 0,-1.2524414 0.3955078,-2.980957 0.402832,-1.7358398 1.1499023,-3.4936524 0.7470703,-1.765137 1.7871094,-2.944336 1.0400391,-1.179199 2.2119141,-1.179199 1.17187496,0 1.9702148,0.981445 0.79833984,0.974121 0.79833984,1.992188 -0.0219727,0.153808 -0.15380859,0.285644 -0.13183594,0.131836 -0.26367188,0.131836 -0.13183593,0 -0.1977539,-0.08789 -0.0952148,-0.131836 -0.13183594,-0.483399 -0.1171875,-0.930176 -0.66650391,-1.508789 -0.5493164,-0.585937 -1.36962892,-0.585937 -0.8203125,0 -1.7504883,1.105957 -1.2377929,1.464843 -2.1240234,4.1528316 -0.8862305,2.6806641 -0.8862305,4.2407227 0,1.5527344 0.5273438,2.6000976 0.6445312,1.2744141 1.8603515,1.2744141 0.8935547,0 2.0507813,-0.8349609 0.3222656,-0.234375 0.5200195,-0.3808594 0.1977539,-0.1464844 0.3222657,-0.1464844 z"
     id="path372" /></g>
</g><g
         transform="translate(10.634222,20.216876)"
         id="aUvu_UPcDo_QwuL8u-fri">
		<g
   aria-label="C"
   id="text211"
   style="font-size:17px;line-height:1;font-family:'Bad Script';letter-spacing:0.085;white-space:pre;opacity:1;fill:#ffffff;stroke:#000000;stroke-width:0"><path
     d="m -0.41113281,-1.3390777 q 0.29052734,0 0.29052734,0.3071289 0,0.23242187 -0.25732422,0.42333984 -0.39013672,0.265625 -0.78857421,0.56445312 -1.4443359,1.07910154 -2.65625,1.07910154 -0.6806641,0 -1.2949219,-0.34863279 -1.3032226,-0.73046875 -1.8676758,-2.63134761 -0.2822265,-0.9545899 -0.2822265,-1.8178711 0,-1.4194336 0.4482422,-3.378418 0.4565429,-1.9672852 1.3032226,-3.9594722 0.8466797,-2.000489 2.0253906,-3.336915 1.178711,-1.336425 2.50683598,-1.336425 1.328125,0 2.23291012,1.112304 0.9047852,1.104004 0.9047852,2.257813 -0.024902,0.174316 -0.1743164,0.32373 -0.1494141,0.149414 -0.2988281,0.149414 -0.1494141,0 -0.2241211,-0.09961 -0.1079102,-0.149414 -0.1494141,-0.547852 -0.1328125,-1.054199 -0.75537109,-1.70996 -0.62255859,-0.664063 -1.55224611,-0.664063 -0.9296875,0 -1.9838867,1.253418 -1.402832,1.660156 -2.4072266,4.706543 -1.0043945,3.0380859 -1.0043945,4.8061523 0,1.7597656 0.5976563,2.9467774 0.7304687,1.4443359 2.1083984,1.4443359 1.0126953,0 2.3242187,-0.94628906 0.3652344,-0.26562504 0.58935551,-0.43164064 0.2241211,-0.1660156 0.36523438,-0.1660156 z"
     id="path369" /></g>
</g></g></g></svg>
